<svg width="194" height="64" viewBox="0 0 194 64" fill="none" xmlns="http://www.w3.org/2000/svg">
<path d="M24.8367 55.1877V59.2526H24.1775V47.5339H27.2537C28.1472 47.656 28.9065 48.0295 29.5315 48.6545C30.2786 49.4016 30.6521 50.3024 30.6521 51.3571C30.6521 52.4167 30.2786 53.32 29.5315 54.0671C28.7844 54.8142 27.8835 55.1877 26.8289 55.1877H24.8367ZM24.8367 48.2004V54.5212H26.8289C27.698 54.5212 28.4402 54.2136 29.0554 53.5983C29.6755 52.9782 29.9856 52.2312 29.9856 51.3571C29.9856 50.4831 29.6755 49.7385 29.0554 49.1232C28.4402 48.508 27.698 48.2004 26.8289 48.2004H24.8367ZM32.8567 57.905C33.4768 58.4714 34.2141 58.7546 35.0686 58.7546C35.9866 58.7546 36.7703 58.4299 37.4197 57.7805C37.5027 57.6975 37.5808 57.612 37.6541 57.5241L38.3499 57.7731C38.2229 57.9489 38.0789 58.1174 37.9177 58.2785C37.1316 59.0647 36.1819 59.4577 35.0686 59.4577C33.9602 59.4577 33.0129 59.0647 32.2268 58.2785C31.4407 57.4924 31.0476 56.5427 31.0476 55.4294C31.0476 54.321 31.4407 53.3737 32.2268 52.5876C33.0129 51.8015 33.9602 51.4084 35.0686 51.4084C36.0208 51.4084 36.8533 51.694 37.5662 52.2653C37.6833 52.363 37.8005 52.4704 37.9177 52.5876C37.9617 52.6315 38.0032 52.6755 38.0422 52.7194L37.5442 53.2175L32.8567 57.905ZM37.0608 52.7707C36.4895 52.3313 35.8254 52.1115 35.0686 52.1115C34.1555 52.1115 33.3743 52.4362 32.7249 53.0856C32.0754 53.7302 31.7507 54.5114 31.7507 55.4294C31.7507 56.1862 31.9705 56.8503 32.4099 57.4216L37.0608 52.7707ZM40.115 52.0603H40.7742V53.3713C40.9109 53.176 41.0696 52.988 41.2502 52.8073C41.8313 52.2263 42.427 51.9211 43.0374 51.8918V52.6096C42.6223 52.6291 42.1926 52.861 41.7483 53.3054C41.1233 53.9255 40.7986 54.6701 40.7742 55.5393V59.2526H40.115V52.0603ZM46.0183 52.7194V59.2526H45.3591V52.7194H44.6267V52.0603H45.3591V50.112C45.3884 49.57 45.5959 49.1037 45.9817 48.7131C46.3821 48.342 46.8435 48.1564 47.366 48.1564C47.6394 48.1564 47.9275 48.2077 48.2302 48.3103L48.0251 48.8962C47.8201 48.8083 47.6223 48.7644 47.4319 48.7644C47.0852 48.7644 46.7581 48.9035 46.4504 49.1818C46.177 49.4504 46.033 49.7751 46.0183 50.156V52.0603H47.4832V52.7194H46.0183ZM49.49 52.0603V59.2526H48.8308V52.0603H49.49ZM49.1604 49.5114C49.3411 49.5114 49.4949 49.5749 49.6218 49.7019C49.7537 49.8288 49.8196 49.9826 49.8196 50.1633C49.8196 50.3488 49.7537 50.5051 49.6218 50.632C49.4949 50.759 49.3411 50.8225 49.1604 50.8225C48.9797 50.8225 48.8235 50.759 48.6917 50.632C48.5647 50.5051 48.5012 50.3488 48.5012 50.1633C48.5012 49.9826 48.5647 49.8288 48.6917 49.7019C48.8235 49.5749 48.9797 49.5114 49.1604 49.5114ZM52.4929 47.5339V59.2526H51.8337V47.5339H52.4929ZM56.0598 57.905C56.6799 58.4714 57.4172 58.7546 58.2717 58.7546C59.1897 58.7546 59.9734 58.4299 60.6228 57.7805C60.7058 57.6975 60.7839 57.612 60.8572 57.5241L61.553 57.7731C61.426 57.9489 61.282 58.1174 61.1208 58.2785C60.3347 59.0647 59.385 59.4577 58.2717 59.4577C57.1633 59.4577 56.2161 59.0647 55.4299 58.2785C54.6438 57.4924 54.2507 56.5427 54.2507 55.4294C54.2507 54.321 54.6438 53.3737 55.4299 52.5876C56.2161 51.8015 57.1633 51.4084 58.2717 51.4084C59.2239 51.4084 60.0564 51.694 60.7693 52.2653C60.8865 52.363 61.0037 52.4704 61.1208 52.5876C61.1648 52.6315 61.2063 52.6755 61.2454 52.7194L60.7473 53.2175L56.0598 57.905ZM60.2639 52.7707C59.6926 52.3313 59.0286 52.1115 58.2717 52.1115C57.3586 52.1115 56.5774 52.4362 55.928 53.0856C55.2786 53.7302 54.9539 54.5114 54.9539 55.4294C54.9539 56.1862 55.1736 56.8503 55.613 57.4216L60.2639 52.7707ZM65.2957 55.5539C64.7341 55.2512 64.3459 54.9924 64.1311 54.7775C63.7942 54.4406 63.6257 54.0354 63.6257 53.5617C63.6257 53.0832 63.7942 52.6755 64.1311 52.3386C64.468 51.9968 64.8733 51.8259 65.3469 51.8259C65.8254 51.8259 66.2209 51.9821 66.5334 52.2946C66.8362 52.6022 66.9875 52.9514 66.9875 53.342V53.3786L66.4163 53.6057C66.3674 53.2346 66.2502 52.9563 66.0647 52.7707C65.884 52.5852 65.6448 52.4924 65.3469 52.4924C65.054 52.4924 64.8025 52.5974 64.5925 52.8073C64.3826 53.0124 64.2776 53.2639 64.2776 53.5617C64.2776 53.8547 64.3826 54.1062 64.5925 54.3161C64.7146 54.4382 64.9734 54.6237 65.3689 54.8728C65.9939 55.2146 66.4382 55.5173 66.7019 55.781C67.1169 56.2009 67.3245 56.7014 67.3245 57.2824C67.3245 57.8781 67.1169 58.3859 66.7019 58.8059C66.2869 59.2209 65.7839 59.4284 65.1931 59.4284C64.6023 59.4284 64.0994 59.2209 63.6843 58.8059C63.2693 58.3859 63.0618 57.927 63.0618 57.4289L63.7136 57.2605C63.7136 57.6901 63.8577 58.049 64.1458 58.3371C64.4387 58.6252 64.7878 58.7692 65.1931 58.7692C65.5984 58.7692 65.9451 58.6252 66.2332 58.3371C66.5261 58.049 66.6726 57.6975 66.6726 57.2824C66.6726 56.8772 66.5286 56.5305 66.2405 56.2424C66.0842 56.0861 65.7693 55.8566 65.2957 55.5539ZM74.3777 52.0603H75.0369V53.071C75.1589 52.905 75.2981 52.7439 75.4543 52.5876C76.2405 51.8064 77.1877 51.4157 78.2961 51.4157C79.4094 51.4157 80.3567 51.8088 81.1379 52.5949C81.9241 53.3762 82.3171 54.3234 82.3171 55.4367C82.3171 56.5451 81.9241 57.4924 81.1379 58.2785C80.3567 59.0647 79.4094 59.4577 78.2961 59.4577C77.1877 59.4577 76.2405 59.0647 75.4543 58.2785C75.2981 58.1223 75.1589 57.9611 75.0369 57.7951V61.9992H74.3777V52.0603ZM75.0369 54.7482V56.1252C75.1638 56.7551 75.4666 57.3093 75.9451 57.7878C76.5945 58.4372 77.3782 58.7619 78.2961 58.7619C79.2141 58.7619 79.9978 58.4372 80.6472 57.7878C81.2966 57.1384 81.6213 56.3547 81.6213 55.4367C81.6213 54.5188 81.2966 53.7351 80.6472 53.0856C79.9978 52.4362 79.2141 52.1115 78.2961 52.1115C77.3782 52.1115 76.5945 52.4362 75.9451 53.0856C75.4666 53.5642 75.1638 54.1184 75.0369 54.7482ZM91.9119 59.2526H91.2527V57.7878C91.1257 57.9587 90.9866 58.1223 90.8352 58.2785C90.0491 59.0647 89.0994 59.4577 87.9861 59.4577C86.8777 59.4577 85.9304 59.0647 85.1443 58.2785C84.3582 57.4924 83.9651 56.5451 83.9651 55.4367C83.9651 54.3234 84.3582 53.3737 85.1443 52.5876C85.9304 51.8015 86.8777 51.4084 87.9861 51.4084C89.0994 51.4084 90.0491 51.8015 90.8352 52.5876C90.9866 52.7439 91.1257 52.9074 91.2527 53.0783V52.0603H91.9119V59.2526ZM91.2527 56.0886V54.7849C91.1306 54.1403 90.8254 53.5739 90.3372 53.0856C89.6877 52.4362 88.9041 52.1115 87.9861 52.1115C87.0681 52.1115 86.2844 52.4362 85.635 53.0856C84.9856 53.7351 84.6609 54.5188 84.6609 55.4367C84.6609 56.3547 84.9856 57.1384 85.635 57.7878C86.2844 58.4323 87.0681 58.7546 87.9861 58.7546C88.9041 58.7546 89.6877 58.4299 90.3372 57.7805C90.8254 57.2922 91.1306 56.7282 91.2527 56.0886ZM94.1091 52.0603H94.7683V53.3713C94.905 53.176 95.0637 52.988 95.2444 52.8073C95.8254 52.2263 96.4211 51.9211 97.0315 51.8918V52.6096C96.6165 52.6291 96.1868 52.861 95.7424 53.3054C95.1174 53.9255 94.7927 54.6701 94.7683 55.5393V59.2526H94.1091V52.0603ZM106.267 59.2526H105.608V57.7878C105.481 57.9587 105.342 58.1223 105.191 58.2785C104.405 59.0647 103.455 59.4577 102.342 59.4577C101.233 59.4577 100.286 59.0647 99.4998 58.2785C98.7136 57.4924 98.3206 56.5451 98.3206 55.4367C98.3206 54.3234 98.7136 53.3737 99.4998 52.5876C100.286 51.8015 101.233 51.4084 102.342 51.4084C103.455 51.4084 104.405 51.8015 105.191 52.5876C105.342 52.7439 105.481 52.9074 105.608 53.0783V52.0603H106.267V59.2526ZM105.608 56.0886V54.7849C105.486 54.1403 105.181 53.5739 104.693 53.0856C104.043 52.4362 103.26 52.1115 102.342 52.1115C101.424 52.1115 100.64 52.4362 99.9905 53.0856C99.3411 53.7351 99.0164 54.5188 99.0164 55.4367C99.0164 56.3547 99.3411 57.1384 99.9905 57.7878C100.64 58.4323 101.424 58.7546 102.342 58.7546C103.26 58.7546 104.043 58.4299 104.693 57.7805C105.181 57.2922 105.486 56.7282 105.608 56.0886ZM112.91 60.2634C113.501 60.195 113.797 59.863 113.797 59.2673V52.0603H114.456V59.2526C114.456 60.2829 113.941 60.8396 112.91 60.9226V60.2634ZM114.126 49.5114C114.307 49.5114 114.461 49.5749 114.588 49.7019C114.719 49.8288 114.785 49.9826 114.785 50.1633C114.785 50.3488 114.719 50.5051 114.588 50.632C114.461 50.759 114.307 50.8225 114.126 50.8225C113.946 50.8225 113.789 50.759 113.657 50.632C113.531 50.5051 113.467 50.3488 113.467 50.1633C113.467 49.9826 113.531 49.8288 113.657 49.7019C113.789 49.5749 113.946 49.5114 114.126 49.5114ZM124.754 59.2526H124.094V57.7878C123.968 57.9587 123.828 58.1223 123.677 58.2785C122.891 59.0647 121.941 59.4577 120.828 59.4577C119.719 59.4577 118.772 59.0647 117.986 58.2785C117.2 57.4924 116.807 56.5451 116.807 55.4367C116.807 54.3234 117.2 53.3737 117.986 52.5876C118.772 51.8015 119.719 51.4084 120.828 51.4084C121.941 51.4084 122.891 51.8015 123.677 52.5876C123.828 52.7439 123.968 52.9074 124.094 53.0783V52.0603H124.754V59.2526ZM124.094 56.0886V54.7849C123.972 54.1403 123.667 53.5739 123.179 53.0856C122.53 52.4362 121.746 52.1115 120.828 52.1115C119.91 52.1115 119.126 52.4362 118.477 53.0856C117.827 53.7351 117.503 54.5188 117.503 55.4367C117.503 56.3547 117.827 57.1384 118.477 57.7878C119.126 58.4323 119.91 58.7546 120.828 58.7546C121.746 58.7546 122.53 58.4299 123.179 57.7805C123.667 57.2922 123.972 56.7282 124.094 56.0886ZM126.951 52.0603H127.61V53.3713C127.747 53.176 127.906 52.988 128.086 52.8073C128.667 52.2263 129.263 51.9211 129.873 51.8918V52.6096C129.458 52.6291 129.029 52.861 128.584 53.3054C127.959 53.9255 127.635 54.6701 127.61 55.5393V59.2526H126.951V52.0603ZM139.065 59.2526H138.406V57.7878C138.279 57.9587 138.14 58.1223 137.989 58.2785C137.202 59.0647 136.253 59.4577 135.139 59.4577C134.031 59.4577 133.084 59.0647 132.298 58.2785C131.511 57.4924 131.118 56.5451 131.118 55.4367C131.118 54.3234 131.511 53.3737 132.298 52.5876C133.084 51.8015 134.031 51.4084 135.139 51.4084C136.253 51.4084 137.202 51.8015 137.989 52.5876C138.14 52.7439 138.279 52.9074 138.406 53.0783V47.5339H139.065V59.2526ZM138.406 56.0886V54.7849C138.284 54.1403 137.979 53.5739 137.49 53.0856C136.841 52.4362 136.057 52.1115 135.139 52.1115C134.221 52.1115 133.438 52.4362 132.788 53.0856C132.139 53.7351 131.814 54.5188 131.814 55.4367C131.814 56.3547 132.139 57.1384 132.788 57.7878C133.438 58.4323 134.221 58.7546 135.139 58.7546C136.057 58.7546 136.841 58.4299 137.49 57.7805C137.979 57.2922 138.284 56.7282 138.406 56.0886ZM142.068 52.0603V59.2526H141.409V52.0603H142.068ZM141.739 49.5114C141.919 49.5114 142.073 49.5749 142.2 49.7019C142.332 49.8288 142.398 49.9826 142.398 50.1633C142.398 50.3488 142.332 50.5051 142.2 50.632C142.073 50.759 141.919 50.8225 141.739 50.8225C141.558 50.8225 141.402 50.759 141.27 50.632C141.143 50.5051 141.079 50.3488 141.079 50.1633C141.079 49.9826 141.143 49.8288 141.27 49.7019C141.402 49.5749 141.558 49.5114 141.739 49.5114ZM145.071 53.6643V59.2526H144.412V52.0603H145.071V52.5217C145.672 51.926 146.37 51.6281 147.166 51.6281C148.015 51.6281 148.706 51.8942 149.239 52.4265C149.771 52.9587 150.044 53.6301 150.059 54.4406V59.2526H149.4V54.4992C149.4 53.8889 149.177 53.3689 148.733 52.9392C148.294 52.5046 147.771 52.2873 147.166 52.2873C146.56 52.2873 146.038 52.4997 145.598 52.9245C145.359 53.1638 145.183 53.4104 145.071 53.6643ZM153.633 57.905C154.253 58.4714 154.99 58.7546 155.845 58.7546C156.763 58.7546 157.547 58.4299 158.196 57.7805C158.279 57.6975 158.357 57.612 158.43 57.5241L159.126 57.7731C158.999 57.9489 158.855 58.1174 158.694 58.2785C157.908 59.0647 156.958 59.4577 155.845 59.4577C154.737 59.4577 153.789 59.0647 153.003 58.2785C152.217 57.4924 151.824 56.5427 151.824 55.4294C151.824 54.321 152.217 53.3737 153.003 52.5876C153.789 51.8015 154.737 51.4084 155.845 51.4084C156.797 51.4084 157.63 51.694 158.343 52.2653C158.46 52.363 158.577 52.4704 158.694 52.5876C158.738 52.6315 158.78 52.6755 158.819 52.7194L158.321 53.2175L153.633 57.905ZM157.837 52.7707C157.266 52.3313 156.602 52.1115 155.845 52.1115C154.932 52.1115 154.151 52.4362 153.501 53.0856C152.852 53.7302 152.527 54.5114 152.527 55.4294C152.527 56.1862 152.747 56.8503 153.186 57.4216L157.837 52.7707ZM160.891 52.0603H161.551V53.3713C161.687 53.176 161.846 52.988 162.027 52.8073C162.608 52.2263 163.203 51.9211 163.814 51.8918V52.6096C163.399 52.6291 162.969 52.861 162.525 53.3054C161.9 53.9255 161.575 54.6701 161.551 55.5393V59.2526H160.891V52.0603ZM166.092 52.0603V59.2526H165.432V52.0603H166.092ZM167.366 49.0939L165.572 50.4636H164.956L166.15 49.0939H167.366ZM176.199 59.2526H175.54V57.7878C175.413 57.9587 175.274 58.1223 175.122 58.2785C174.336 59.0647 173.386 59.4577 172.273 59.4577C171.165 59.4577 170.218 59.0647 169.431 58.2785C168.645 57.4924 168.252 56.5451 168.252 55.4367C168.252 54.3234 168.645 53.3737 169.431 52.5876C170.218 51.8015 171.165 51.4084 172.273 51.4084C173.386 51.4084 174.336 51.8015 175.122 52.5876C175.274 52.7439 175.413 52.9074 175.54 53.0783V52.0603H176.199V59.2526ZM175.54 56.0886V54.7849C175.418 54.1403 175.113 53.5739 174.624 53.0856C173.975 52.4362 173.191 52.1115 172.273 52.1115C171.355 52.1115 170.572 52.4362 169.922 53.0856C169.273 53.7351 168.948 54.5188 168.948 55.4367C168.948 56.3547 169.273 57.1384 169.922 57.7878C170.572 58.4323 171.355 58.7546 172.273 58.7546C173.191 58.7546 173.975 58.4299 174.624 57.7805C175.113 57.2922 175.418 56.7282 175.54 56.0886Z" fill="black"/>
<path d="M24.019 37.1341C31.7051 37.1341 37.936 30.9576 37.936 23.3384C37.936 15.7193 31.7051 9.54276 24.019 9.54276C16.3329 9.54276 10.1021 15.7193 10.1021 23.3384C10.1021 30.9576 16.3329 37.1341 24.019 37.1341Z" fill="#B82027"/>
<path d="M21.3666 14.1543C22.8793 13.8105 24.3968 13.8888 25.9148 14.391C27.4328 14.8931 28.8251 15.7905 30.0935 17.0875C30.3549 17.3533 30.4763 17.6475 30.4649 17.9621C30.4507 18.283 30.3133 18.5691 30.0452 18.8282L19.9145 28.591C21.381 29.8215 22.9957 30.4103 24.7615 30.3509C26.5273 30.2916 28.1121 29.5889 29.5187 28.2366C30.1193 27.6571 30.6251 26.9696 31.0316 26.1759C31.4381 25.3822 31.671 24.6507 31.7301 23.9814C31.7862 23.608 31.9274 23.3051 32.1618 23.0797C32.3481 22.904 32.5961 22.7923 32.9076 22.749C33.3208 22.7386 33.6501 22.8591 33.8936 23.1059C34.1048 23.3239 34.1992 23.6027 34.1768 23.9423C34.0791 24.9368 33.7572 25.9976 33.202 27.1283C32.6513 28.2571 31.9803 29.2 31.1934 29.9551C29.8559 31.2445 28.3728 32.099 26.7431 32.5296C25.1135 32.9601 23.4846 32.9302 21.86 32.4487C20.2354 31.9672 18.7737 31.0657 17.473 29.7398C16.1723 28.4139 15.2634 26.9308 14.7902 25.3357C14.3187 23.745 14.2926 22.1728 14.7093 20.6254C15.126 19.0779 15.9727 17.6946 17.2412 16.4682C18.5097 15.2419 19.853 14.5088 21.3684 14.1587L21.3666 14.1543ZM16.9079 22.3889C16.8346 23.9738 17.3346 25.4914 18.3989 26.9452L27.5773 18.0999C26.1904 16.9522 24.7163 16.3761 23.1486 16.369C21.5809 16.3618 20.1709 16.9657 18.9152 18.1716C17.6595 19.3775 16.9749 20.8013 16.9016 22.3862L16.9079 22.3889Z" fill="white"/>
<path d="M59.1538 16.6404V24.7878C59.1538 26.5887 58.7264 28.2307 57.8763 29.709C57.0262 31.1873 55.8604 32.3478 54.3788 33.1953C52.8973 34.0379 51.2506 34.4617 49.429 34.4617C47.6074 34.4617 45.9607 34.0379 44.4791 33.1953C42.9975 32.3526 41.8317 31.1921 40.9816 29.709C40.1316 28.2307 39.7041 26.5887 39.7041 24.7878C39.7041 22.9869 40.117 21.3497 40.9476 19.8811C41.7734 18.4124 42.9052 17.2568 44.3382 16.4141C45.7712 15.5714 47.3742 15.1477 49.1472 15.1477C50.6628 15.1477 52.0521 15.4655 53.3102 16.1011C54.5683 16.7367 55.6078 17.6083 56.4239 18.7206V8.56526C56.4239 8.17041 56.5502 7.84779 56.8076 7.59258C57.0651 7.33737 57.3905 7.21217 57.7889 7.21217C58.1872 7.21217 58.5078 7.33737 58.7507 7.59258C58.9935 7.84779 59.1198 8.17041 59.1198 8.56526V16.3323C59.1441 16.3997 59.1538 16.5056 59.1538 16.6452V16.6404ZM53.0333 31.0814C54.1068 30.4458 54.952 29.579 55.5689 28.4811C56.1859 27.3833 56.4967 26.1554 56.4967 24.7878C56.4967 24.393 56.487 24.1041 56.4627 23.9211C56.4384 23.8729 56.4287 23.8152 56.4287 23.7477C56.1956 21.9468 55.4329 20.4637 54.136 19.3081C52.8438 18.1524 51.2748 17.5746 49.4338 17.5746C48.1028 17.5746 46.8982 17.8876 45.8149 18.5087C44.7317 19.1299 43.8816 19.9918 43.2598 21.0897C42.6429 22.1876 42.332 23.4203 42.332 24.783C42.332 26.1457 42.6429 27.3784 43.2598 28.4763C43.8768 29.5742 44.7268 30.4409 45.8149 31.0765C46.8982 31.7122 48.1077 32.03 49.4338 32.03C50.7599 32.03 51.9646 31.7122 53.0381 31.0765L53.0333 31.0814Z" fill="black"/>
<path d="M108.599 23.4733V25.6931H88.1486C88.3332 27.5903 89.0812 29.1264 90.3879 30.3061C91.6946 31.4858 93.3267 32.0733 95.2843 32.0733C96.1247 32.0733 96.9699 31.9288 97.82 31.6399C98.6701 31.351 99.355 30.9851 99.865 30.5469C100.166 30.3157 100.482 30.2002 100.807 30.2002C101.065 30.2002 101.322 30.2917 101.575 30.4794C101.876 30.7587 102.032 31.0669 102.032 31.4136C102.032 31.7122 101.905 31.9818 101.648 32.2129C100.88 32.8582 99.899 33.3975 98.7089 33.826C97.5188 34.2546 96.3773 34.4665 95.2795 34.4665C93.4142 34.4665 91.748 34.0572 90.2762 33.2338C88.8043 32.4104 87.658 31.2692 86.8322 29.8005C86.0064 28.3318 85.5886 26.6754 85.5886 24.8263C85.5886 22.9773 85.9772 21.2823 86.7593 19.8185C87.5414 18.3498 88.6246 17.2086 90.0139 16.3852C91.4031 15.5666 92.9819 15.1525 94.7549 15.1525C96.5279 15.1525 98.0094 15.5522 99.3356 16.3467C100.662 17.1412 101.696 18.2487 102.43 19.6596C103.163 21.0705 103.533 21.6724 103.533 23.4733H108.594H108.599ZM90.349 19.1732C89.1832 20.2615 88.474 21.6916 88.2166 23.4733H101.016C100.832 21.6916 100.176 20.2615 99.0587 19.1732C97.9414 18.085 96.5036 17.5457 94.7549 17.5457C93.0061 17.5457 91.5149 18.0898 90.349 19.1732Z" fill="black"/>
<path d="M120.111 16.3467C121.442 17.146 122.472 18.2487 123.206 19.6596C123.939 21.0705 124.308 22.6739 124.308 24.4796C124.308 24.8504 124.192 25.1442 123.959 25.3657C123.725 25.5872 123.424 25.6931 123.05 25.6931H108.92C109.104 27.5903 109.852 29.1264 111.159 30.3061C112.466 31.4858 114.098 32.0733 116.055 32.0733C116.896 32.0733 117.741 31.9288 118.591 31.6399C119.441 31.351 120.126 30.9851 120.636 30.5469C120.937 30.3157 121.253 30.2002 121.578 30.2002C121.836 30.2002 122.088 30.2917 122.346 30.4794C122.647 30.7587 122.803 31.0669 122.803 31.4136C122.803 31.7122 122.676 31.9818 122.419 32.2129C121.651 32.8582 120.67 33.3975 119.48 33.826C118.29 34.2546 117.148 34.4665 116.05 34.4665C114.185 34.4665 112.519 34.0572 111.047 33.2338C109.575 32.4104 108.429 31.2692 107.603 29.8005C106.777 28.3318 106.36 26.6754 106.36 24.8263C106.36 22.9773 106.748 21.2823 107.53 19.8185C108.312 18.3498 109.396 17.2086 110.785 16.3852C112.174 15.5666 113.753 15.1525 115.526 15.1525C117.299 15.1525 118.78 15.5522 120.107 16.3467H120.111ZM111.125 19.1732C109.959 20.2615 109.25 21.6916 108.992 23.4733H121.792C121.608 21.6916 120.952 20.2615 119.835 19.1732C118.717 18.085 117.279 17.5457 115.531 17.5457C113.782 17.5457 112.291 18.0898 111.125 19.1732Z" fill="black"/>
<path d="M139.819 15.4992C140.392 15.7544 140.673 16.1108 140.673 16.573C140.673 16.7127 140.664 16.8138 140.639 16.886C140.547 17.2086 140.401 17.4301 140.202 17.5457C140.003 17.6613 139.731 17.719 139.381 17.719C139.172 17.719 138.808 17.695 138.298 17.6516C138.113 17.6276 137.832 17.6179 137.458 17.6179C135.709 17.6179 134.281 18.0802 133.173 19.0047C132.066 19.9292 131.512 21.1331 131.512 22.6113V32.9786C131.512 33.3927 131.395 33.7201 131.162 33.9513C130.929 34.1824 130.604 34.298 130.181 34.298C129.758 34.298 129.433 34.1824 129.2 33.9513C128.967 33.7201 128.85 33.3975 128.85 32.9786V16.6404C128.85 16.2263 128.967 15.8989 129.2 15.6678C129.433 15.4366 129.758 15.3211 130.181 15.3211C130.604 15.3211 130.929 15.4366 131.162 15.6678C131.395 15.8989 131.512 16.2215 131.512 16.6404V18.1669C132.187 17.1942 133.052 16.443 134.101 15.9133C135.15 15.3837 136.282 15.114 137.492 15.114C138.473 15.114 139.245 15.2392 139.819 15.4944V15.4992Z" fill="black"/>
<path d="M144.069 11.1655C143.705 10.7947 143.525 10.3469 143.525 9.8124C143.525 9.27791 143.71 8.80601 144.084 8.45932C144.458 8.11262 144.91 7.93927 145.449 7.93927C145.988 7.93927 146.406 8.11262 146.78 8.45932C147.154 8.80601 147.338 9.25865 147.338 9.8124C147.338 10.3662 147.154 10.7947 146.78 11.1655C146.406 11.5363 145.954 11.7192 145.415 11.7192C144.876 11.7192 144.429 11.5363 144.069 11.1655ZM144.472 33.9079C144.215 33.6527 144.089 33.3301 144.089 32.9352V16.6789C144.089 16.2841 144.215 15.9615 144.472 15.7063C144.73 15.4511 145.055 15.3259 145.454 15.3259C145.852 15.3259 146.173 15.4511 146.415 15.7063C146.658 15.9615 146.785 16.2841 146.785 16.6789V32.94C146.785 33.3349 146.663 33.6575 146.415 33.9127C146.173 34.1679 145.852 34.2931 145.454 34.2931C145.055 34.2931 144.73 34.1679 144.472 33.9127V33.9079Z" fill="black"/>
<path d="M165.408 16.1589C166.725 16.8523 167.754 17.8635 168.503 19.1925C169.251 20.5215 169.62 22.1106 169.62 23.9596V32.9738C169.62 33.3445 169.493 33.6575 169.236 33.9079C168.979 34.1583 168.663 34.2883 168.294 34.2883C167.895 34.2883 167.57 34.1631 167.312 33.9079C167.055 33.6527 166.929 33.3397 166.929 32.9738V23.9596C166.929 21.9035 166.351 20.3386 165.199 19.2599C164.043 18.1861 162.537 17.6468 160.672 17.6468C159.531 17.6468 158.496 17.8683 157.578 18.3065C156.655 18.7447 155.926 19.3514 155.392 20.1267C154.853 20.9019 154.586 21.7639 154.586 22.7077V32.9689C154.586 33.3638 154.464 33.6816 154.216 33.9224C153.969 34.1631 153.648 34.2883 153.255 34.2883C152.861 34.2883 152.531 34.1679 152.273 33.9224C152.016 33.6816 151.89 33.3638 151.89 32.9689V16.679C151.89 16.2841 152.016 15.9615 152.273 15.7063C152.531 15.4511 152.856 15.3259 153.255 15.3259C153.653 15.3259 153.974 15.4511 154.216 15.7063C154.459 15.9615 154.586 16.2841 154.586 16.679V17.8587C155.353 17.0016 156.286 16.3323 157.384 15.8459C158.481 15.3596 159.667 15.1188 160.949 15.1188C162.605 15.1188 164.092 15.4655 165.408 16.1589Z" fill="black"/>
<path d="M184.372 39.8114C184.372 39.5562 184.586 39.354 184.844 39.3395C185.966 39.2721 186.995 38.9591 187.928 38.4005C188.987 37.7649 189.823 36.8741 190.43 35.7329C191.037 34.5869 191.338 33.2771 191.338 31.7988V30.2387C190.639 31.5581 189.648 32.5885 188.365 33.3397C187.083 34.0909 185.626 34.4665 183.993 34.4665C182.177 34.4665 180.549 34.0572 179.116 33.2338C177.683 32.4104 176.561 31.2692 175.76 29.8005C174.954 28.3318 174.555 26.6754 174.555 24.8263C174.555 22.9773 174.973 21.2823 175.813 19.8185C176.654 18.3498 177.815 17.2086 179.291 16.3852C180.773 15.5666 182.434 15.1525 184.275 15.1525C186.116 15.1525 187.807 15.5618 189.278 16.3852C190.745 17.2038 191.902 18.3498 192.742 19.8185C193.582 21.2871 194 22.958 194 24.8263V31.8999C194 33.749 193.587 35.4247 192.757 36.9271C191.931 38.4294 190.779 39.614 189.312 40.4807C187.982 41.2656 186.49 41.699 184.853 41.7712C184.576 41.7857 184.348 41.5545 184.353 41.2801L184.372 39.8162V39.8114ZM187.914 31.1151C188.987 30.5035 189.823 29.6464 190.43 28.5485C191.037 27.4507 191.338 26.2083 191.338 24.8215C191.338 23.4347 191.037 22.1924 190.43 21.0945C189.823 19.9967 188.982 19.1347 187.914 18.5136C186.84 17.8876 185.626 17.5794 184.275 17.5794C182.925 17.5794 181.676 17.8924 180.603 18.5136C179.529 19.1395 178.689 19.9967 178.087 21.0945C177.479 22.1924 177.178 23.4347 177.178 24.8215C177.178 26.2083 177.479 27.4507 178.087 28.5485C178.694 29.6464 179.534 30.5035 180.603 31.1151C181.676 31.7266 182.9 32.0348 184.275 32.0348C185.65 32.0348 186.84 31.7266 187.914 31.1151Z" fill="black"/>
<path d="M88.2167 23.4733H80.7214V25.6931H88.1438" fill="black"/>
<path d="M79.1329 23.4733C78.8463 23.4733 78.6472 23.6948 78.6472 23.9981V24.9612C78.6472 26.8199 78.3946 27.4555 77.7874 28.5533C77.1802 29.6512 76.3398 30.5083 75.2712 31.1199C74.1976 31.7314 72.9881 32.0396 71.6328 32.0396C70.2776 32.0396 69.034 31.7314 67.9605 31.1199C66.887 30.5083 66.0466 29.6512 65.4443 28.5533C64.8371 27.4555 64.5359 26.2131 64.5359 24.8263C64.5359 23.4396 64.8371 22.1972 65.4443 21.0993C66.0515 20.0015 66.8919 19.1395 67.9605 18.5184C69.034 17.8924 70.2582 17.5842 71.6328 17.5842C73.0075 17.5842 74.1976 17.8972 75.2712 18.5184C75.378 18.581 75.48 18.6484 75.5821 18.7158C75.7618 18.841 76.0095 18.8121 76.1747 18.6676L77.3794 17.5746C77.6125 17.3627 77.5834 16.9919 77.3259 16.8138C77.1025 16.6645 76.8742 16.52 76.6361 16.3852C75.1692 15.5666 73.4982 15.1525 71.6328 15.1525C69.7675 15.1525 68.1305 15.5618 66.649 16.3852C65.1674 17.2038 64.0065 18.3498 63.171 19.8185C62.3306 21.2871 61.9128 22.958 61.9128 24.8263C61.9128 26.6947 62.316 28.3318 63.1175 29.8005C63.9239 31.2692 65.0411 32.4104 66.4741 33.2338C67.9071 34.0572 69.5344 34.4665 71.3511 34.4665C72.9832 34.4665 74.4405 34.0909 75.7229 33.3397C77.0053 32.5885 77.9963 31.5533 78.6958 30.2387V31.7988C78.6958 33.2771 78.3946 34.5917 77.7874 35.7329C77.1802 36.8789 76.3496 37.7649 75.2857 38.4005C74.3531 38.9591 73.3233 39.2721 72.2012 39.3395C71.9389 39.354 71.7349 39.5562 71.73 39.8162L71.7106 41.2801C71.7106 41.5545 71.934 41.7857 72.2109 41.7712C73.8479 41.699 75.3343 41.2704 76.6701 40.4807C78.1371 39.614 79.2884 38.4294 80.1142 36.9271C80.94 35.4247 81.3577 33.749 81.3577 31.8999V24.9612C81.3577 24.6 81.3383 24.2485 81.3091 23.9018C81.2848 23.6562 81.0711 23.4733 80.8234 23.4733H79.1329Z" fill="black"/>
<path d="M180.049 39.3492H68.5921C68.3249 39.3492 68.1112 39.561 68.1063 39.8259L68.0869 41.2897C68.0869 41.5594 68.3006 41.776 68.5727 41.776H180.03C180.297 41.776 180.511 41.5642 180.515 41.2993L180.535 39.8355C180.535 39.5658 180.321 39.3492 180.049 39.3492Z" fill="black"/>
<path d="M63.958 39.3492H10.7044C10.3886 39.3492 10.1312 39.561 10.1263 39.821L10.1021 41.2849C10.1021 41.5545 10.3595 41.7712 10.6801 41.7712H63.9337C64.2494 41.7712 64.5069 41.5594 64.5117 41.2993L64.536 39.8355C64.536 39.5658 64.2786 39.3492 63.958 39.3492Z" fill="black"/>
</svg>
